<?xml version="1.0" encoding="iso-8859-1"?>
<!-- Uploaded to: SVG Repo, www.svgrepo.com, Generator: SVG Repo Mixer Tools -->
<svg height="800px" width="800px" version="1.1" id="Layer_1" xmlns="http://www.w3.org/2000/svg" xmlns:xlink="http://www.w3.org/1999/xlink" 
	 viewBox="0 0 512 512" xml:space="preserve">
<g>
	<path style="fill:#E6E1D7;" d="M256,472l-48,16l-16-16l-64,16c0,0,0.596-24.298,0-24c-30.667,15.333-64,16-64,16l32-64l-80,40
		l32-64c0,0-40,9.333-40,8c0-59.333,40-144,40-144l-24-8c8-26.667,48-112,48-112s-16.578-7.256-16-8c36.5-47,112-72,112-72
		l-14.667-9.333C177.333,34.667,214.956,24,256,24s78.667,10.667,102.667,22.667L344,56c0,0,75.5,25,112,72c0.578,0.744-16,8-16,8
		s40,85.333,48,112l-24,8c0,0,40,84.667,40,144c0,1.333-40-8-40-8l32,64l-80-40l32,64c0,0-33.333-0.667-64-16
		c-0.596-0.298,0,24,0,24l-64-16l-16,16L256,472z"/>
	<path style="fill:#E6E1D7;" d="M222,243.999h40h40c0,0,52.441-85.205,157.316-65.767C449.001,155.201,440,135.999,440,135.999
		s16.578-7.255,16-8c-36.5-47-112-72-112-72l14.667-9.333c-2.65-1.325-5.476-2.632-8.444-3.912
		c-13.91-3.545-29.473-6.755-40.222-6.755l-7.573-7.573c-6.281-1.191-12.777-2.181-19.443-2.918L262,35.999l-22.811-11.405
		c-5.198,0.361-10.313,0.881-15.323,1.539L214,35.999c-16.032,0-42.771,7.14-58.76,11.88l12.76,8.12c0,0-10.705,3.546-26,10.474
		v1.526c-4.221,1.056-8.862,2.812-13.734,5.057c-8.017,4.061-16.645,8.829-25.289,14.295c-4.834,3.126-9.604,6.392-14.162,9.633
		c-11.431,8.39-22.29,18.025-31.108,28.869L70,131.999c-0.683,0.683-1.38,1.412-2.089,2.177c2.339,1.058,4.089,1.823,4.089,1.823
		s-9.791,20.89-20.654,45.225C165.108,151.59,222,243.999,222,243.999z"/>
</g>
<g>
	<path style="fill:#D7D2C8;" d="M153.875,280.999c0,0-8,111.2,104,139l-24-46.333C233.875,364.399,209.875,299.532,153.875,280.999z
		"/>
	<path style="fill:#D7D2C8;" d="M361.875,280.999c-56,18.533-80,83.4-80,92.667l-24,46.333
		C369.875,392.199,361.875,280.999,361.875,280.999z"/>
	<path style="fill:#D7D2C8;" d="M464,255.999l10.363-3.454c-2.677-5.51-4.363-8.546-4.363-8.546l15.361-3.84
		c-6.983-19.279-21.637-52.326-32.41-76.034c-34.51-32.688-89.292-56.126-190.951-56.126c-131.282,0-184.401,39.082-216.619,86.706
		c-6.8,15.513-13.403,31.134-17.731,42.707L54,243.999c0,0-2.396,4.317-6.012,11.996L48,255.999c0,0-3.859,8.17-9.179,21.206
		C27.506,305.732,14,349.513,14,395.999c0,0,40-128,128-120s120,88,120,88s32-80,120-88c65.613-5.965,104.535,63.666,120.096,99.485
		C494.151,319.829,464,255.999,464,255.999z"/>
</g>
<g>
	<circle style="fill:#464655;" cx="123" cy="212" r="20"/>
	<circle style="fill:#464655;" cx="388" cy="212" r="20"/>
</g>
<path style="fill:#FFCE56;" d="M257.475,191.999c35.789,0,50.855,67,53.368,88c1.559,13.021,3.13,41.525-6.702,56
	c-16.756,24.667-46.918,104-46.918,104s-31.492-79.333-48.987-104c-10.267-14.475-8.625-42.979-6.998-56
	C203.862,258.999,220.107,191.999,257.475,191.999z"/>
<path d="M512,399.999c0-50.175-26.953-116.222-37.057-139.215l15.586-5.195c4.102-1.368,6.375-5.747,5.133-9.889
	c-6.769-22.562-35.045-84.279-44.993-105.739c0.206-0.095,0.413-0.191,0.62-0.288c8.044-3.755,11.374-5.309,12.474-9.632
	c0.609-2.392,0.068-5-1.446-6.949c-27.747-35.729-75.96-58.854-100.542-68.923l1.185-0.754c2.432-1.547,3.843-4.283,3.694-7.161
	s-1.833-5.454-4.412-6.743C332.8,24.788,293.083,15.999,256,15.999s-76.8,8.789-106.244,23.512
	c-2.578,1.289-4.263,3.865-4.412,6.743s1.263,5.614,3.694,7.161l1.185,0.754C125.642,64.238,77.428,87.364,49.68,123.095
	c-1.512,1.949-2.052,4.556-1.444,6.946c1.1,4.323,4.43,5.877,12.474,9.632c0.208,0.097,0.414,0.193,0.62,0.288
	c-9.947,21.46-38.224,83.178-44.993,105.739c-1.243,4.142,1.031,8.521,5.133,9.889l15.586,5.195C26.953,283.777,0,349.824,0,399.999
	c0,3.716,2.545,6.947,6.188,7.859c0.729,0.183,1.489,0.271,2.323,0.271c3.136,0,13.927-2.189,24.769-4.578l-24.435,48.87
	c-1.54,3.08-0.937,6.8,1.499,9.235c2.435,2.435,6.155,3.037,9.234,1.498l58.534-29.267L56.845,476.42
	c-1.253,2.506-1.104,5.483,0.393,7.852c1.496,2.368,4.108,3.768,6.923,3.725c1.265-0.025,27.901-0.695,56.059-11.79
	c-0.046,3.676-0.123,7.796-0.216,11.596c-0.061,2.497,1.047,4.88,2.997,6.441c1.95,1.56,4.515,2.124,6.941,1.516l59.605-14.901
	l12.797,12.798c2.143,2.142,5.313,2.892,8.187,1.933L256,480.432l45.47,15.157c0.829,0.276,1.682,0.41,2.529,0.41
	c2.088,0,4.133-0.818,5.658-2.343l12.797-12.798l59.605,14.901c2.425,0.609,4.991,0.046,6.941-1.516
	c1.95-1.562,3.059-3.944,2.997-6.441c-0.093-3.801-0.17-7.919-0.217-11.596c28.159,11.096,54.794,11.765,56.059,11.79
	c2.776,0.029,5.426-1.355,6.923-3.725c1.497-2.368,1.646-5.346,0.393-7.852l-21.267-42.533l58.534,29.267
	c3.08,1.539,6.799,0.937,9.234-1.498c2.435-2.436,3.039-6.155,1.499-9.235l-24.435-48.87c10.843,2.39,21.635,4.578,24.771,4.578
	C509.018,408.129,512,403.94,512,399.999z M465.818,384.208c-3.021-0.703-6.176,0.399-8.098,2.835
	c-1.921,2.434-2.263,5.76-0.875,8.534l21.267,42.533l-58.534-29.267c-3.08-1.54-6.799-0.937-9.234,1.498
	c-2.435,2.436-3.039,6.155-1.499,9.235l25.565,51.13c-11.944-1.658-29.929-5.412-46.834-13.864c-1.11-0.555-2.345-0.847-3.586-0.847
	c-2.156,0-4.24,0.88-5.746,2.423c-2.656,2.723-2.634,4.45-2.462,17.896c0.006,0.463,0.012,0.928,0.019,1.389l-53.859-13.465
	c-2.726-0.682-5.61,0.117-7.597,2.104l-12.504,12.504l-43.31-14.437c-0.821-0.273-1.675-0.41-2.53-0.41s-1.709,0.137-2.53,0.41
	l-43.31,14.437l-12.504-12.504c-1.986-1.986-4.869-2.788-7.597-2.104l-53.86,13.465c0.007-0.461,0.013-0.926,0.019-1.389
	c0.172-13.445,0.194-15.173-2.462-17.896c-1.506-1.543-3.59-2.423-5.746-2.423c-1.242,0-2.478,0.292-3.588,0.848
	c-16.904,8.452-34.89,12.206-46.832,13.863l25.565-51.13c1.54-3.08,0.937-6.8-1.499-9.235c-2.435-2.435-6.155-3.038-9.234-1.498
	L33.889,438.11l21.267-42.533c1.387-2.774,1.046-6.101-0.875-8.534c-1.922-2.435-5.073-3.539-8.098-2.835
	c-10.603,2.475-22.246,5.046-29.867,6.566c3.688-56.147,38.547-130.572,38.919-131.359c0.977-2.068,1.021-4.457,0.122-6.561
	s-2.656-3.722-4.826-4.445l-16.396-5.465c11.411-31.564,44.745-102.771,45.11-103.55c0.916-1.953,1.003-4.194,0.244-6.214
	c-0.76-2.019-2.304-3.646-4.28-4.511c-2.183-0.955-4.564-2.027-6.751-3.041c36.339-39.882,101.37-61.807,102.059-62.035
	c2.933-0.972,5.044-3.544,5.424-6.609c0.381-3.065-1.038-6.076-3.644-7.734l-2.107-1.342c25.409-10.07,56.443-15.909,85.813-15.909
	s60.403,5.839,85.813,15.909l-2.107,1.342c-2.606,1.658-4.025,4.669-3.644,7.734c0.38,3.065,2.492,5.638,5.424,6.609
	c0.691,0.229,65.679,22.091,102.06,62.035c-2.188,1.013-4.569,2.085-6.753,3.041c-1.977,0.865-3.52,2.492-4.28,4.512
	c-0.76,2.019-0.672,4.26,0.244,6.213c0.365,0.779,33.701,71.986,45.11,103.55l-16.396,5.465c-2.17,0.724-3.928,2.342-4.827,4.446
	s-0.854,4.492,0.123,6.561c0.372,0.787,35.234,75.168,38.919,131.358C488.064,389.254,476.421,386.683,465.818,384.208z"/>
<path d="M418.569,184.315c-30.398-8.813-54.34,3.33-75.464,14.041c-22.023,11.169-35.202,17.001-49.956,7.017
	c-0.066-0.045-0.136-0.08-0.204-0.123c-12.342-17.082-25.551-21.251-35.472-21.251c-15.69,0-28.042,9.177-37.564,22.104
	c-14.585,8.965-27.878,3.14-49.698-7.767c-21.399-10.695-45.653-22.814-76.41-14.029c-4.249,1.214-6.708,5.642-5.495,9.891
	c1.214,4.248,5.64,6.707,9.89,5.494c0.256-0.073,0.508-0.133,0.763-0.202c-1.89,3.768-2.961,8.015-2.961,12.51
	c0,15.439,12.561,28,28,28s28-12.561,28-28c0-1.693-0.16-3.35-0.449-4.961c3.879,1.798,7.706,3.71,11.508,5.609
	c13.681,6.838,27.66,13.824,42.13,13.824c1.021,0,2.043-0.035,3.068-0.106c-8.782,19.27-13.434,40.445-14.958,52.642
	c-0.342,2.736-0.719,6.345-0.978,10.489c-13.417-7.928-36.243-17.422-72.417-17.422c-4.418,0-8,3.582-8,8s3.582,8,8,8
	c41.834,0,62.604,13.381,72.414,20.604c0.805,11.446,3.321,23.39,9.392,31.948c16.741,23.603,47.766,101.539,48.077,102.324
	c1.21,3.049,4.159,5.048,7.435,5.048c0.02,0,0.039,0,0.059,0c3.3-0.024,6.247-2.072,7.42-5.157
	c0.298-0.784,30.014-78.729,46.058-102.348c5.795-8.531,8.197-20.437,8.965-31.85c9.684-7.217,30.171-20.569,71.419-20.569
	c4.418,0,8-3.582,8-8s-3.582-8-8-8c-35.612,0-58.138,9.419-71.428,17.334c-0.248-4.091-0.604-7.653-0.928-10.36
	c-1.226-10.244-5.59-32.645-14.234-52.777c1.395,0.138,2.786,0.208,4.172,0.208c14.299,0,28.107-7.002,41.618-13.853
	c3.307-1.676,6.633-3.36,9.997-4.97c-0.222,1.415-0.338,2.865-0.338,4.342c0,15.439,12.561,28,28,28s28-12.561,28-28
	c0-4.539-1.093-8.825-3.018-12.621c0.377,0.102,0.753,0.195,1.132,0.305c4.243,1.229,8.681-1.212,9.911-5.456
	S422.813,185.546,418.569,184.315z M124,223.999c-6.617,0-12-5.383-12-12s5.383-12,12-12c6.617,0,12,5.383,12,12
	S130.617,223.999,124,223.999z M297.523,331.504c-12.088,17.795-30.362,61.65-40.46,86.946
	c-10.536-25.284-29.658-69.253-42.302-87.079c-7.457-10.513-7.669-33.71-5.585-50.38c2.055-16.445,9.739-45.594,22.668-64.072
	c0.167-0.214,0.322-0.436,0.465-0.664c6.93-9.671,15.337-16.256,25.166-16.256c26.738,0,42.39,55.591,45.425,80.951
	C304.901,297.673,304.694,320.947,297.523,331.504z M388,223.999c-6.617,0-12-5.383-12-12s5.383-12,12-12s12,5.383,12,12
	S394.617,223.999,388,223.999z"/>
<path d="M232,239.999c-2.11,0-4.17,0.85-5.66,2.34c-1.49,1.49-2.34,3.55-2.34,5.66c0,2.109,0.85,4.17,2.34,5.66
	c1.49,1.489,3.55,2.34,5.66,2.34s4.17-0.851,5.66-2.34c1.49-1.49,2.34-3.561,2.34-5.66c0-2.11-0.85-4.17-2.34-5.66
	C236.17,240.849,234.11,239.999,232,239.999z"/>
<path d="M280,239.999c-2.11,0-4.17,0.85-5.66,2.34c-1.49,1.49-2.34,3.55-2.34,5.66c0,2.109,0.85,4.17,2.34,5.66
	c1.49,1.489,3.55,2.34,5.66,2.34c2.11,0,4.17-0.851,5.66-2.34c1.49-1.5,2.34-3.561,2.34-5.66c0-2.101-0.85-4.17-2.34-5.66
	C284.17,240.849,282.11,239.999,280,239.999z"/>
</svg>